<svg xmlns="http://www.w3.org/2000/svg" xmlns:xlink="http://www.w3.org/1999/xlink" width="840" height="385.65"><rect width="840" height="385.65" rx="5" ry="5" class="a"/><svg y="0%" x="0%"><circle cx="20" cy="20" r="6" fill="#ff5f58"/><circle cx="40" cy="20" r="6" fill="#ffbd2e"/><circle cx="60" cy="20" r="6" fill="#18c132"/></svg><svg height="325.65" viewBox="0 0 80 32.565" width="800" x="15" xmlns="http://www.w3.org/2000/svg" xmlns:xlink="http://www.w3.org/1999/xlink" y="50"><style>@keyframes i{0%{transform:translateX(0)}8.3%{transform:translateX(-80px)}12.5%{transform:translateX(-160px)}16.6%{transform:translateX(-240px)}20.8%{transform:translateX(-320px)}25%{transform:translateX(-400px)}29.2%{transform:translateX(-480px)}33.4%{transform:translateX(-560px)}37.6%{transform:translateX(-640px)}41.7%{transform:translateX(-720px)}45.9%{transform:translateX(-800px)}50.1%{transform:translateX(-880px)}54.3%{transform:translateX(-960px)}58.5%{transform:translateX(-1040px)}62.6%{transform:translateX(-1120px)}66.8%{transform:translateX(-1200px)}71%{transform:translateX(-1280px)}75.2%{transform:translateX(-1360px)}79.3%{transform:translateX(-1440px)}83.5%{transform:translateX(-1600px)}to{transform:translateX(-1680px)}}.a{fill:#282d35}.f,.g{fill:#71bef2;white-space:pre}.g{fill:#b9c0cb}</style><g font-family="Monaco,Consolas,Menlo,'Bitstream Vera Sans Mono','Powerline Symbols',monospace" font-size="1.67"><defs><symbol id="1"><text y="1.67" class="f">$</text></symbol><symbol id="2"><text y="1.67" class="f">$</text><text x="2.004" y="1.67" class="g">git</text><text x="6.012" y="1.67" class="g">ls-files</text><text x="15.03" y="1.67" class="g">|</text><text x="17.034" y="1.67" class="g">xargs</text><text x="23.046" y="1.67" class="g">-L1</text><text x="27.054" y="1.67" class="g">sh</text><text x="30.06" y="1.67" class="g">-c</text><text x="33.066" y="1.67" class="g">&apos;sleep</text><text x="40.08" y="1.67" class="g">.5</text><text x="43.086" y="1.67" class="g">&amp;&amp;</text><text x="46.092" y="1.67" class="g">echo</text><text x="51.102" y="1.67" class="g">&quot;${0##*.}&quot;&apos;</text><text x="63.126" y="1.67" class="g">|</text><text x="65.13" y="1.67" class="g">uniqtoo</text></symbol><symbol id="3"><text y="1.67" class="g">1</text><text x="8.016" y="1.67" class="g">editorconfig</text></symbol><symbol id="4"><text y="1.67" class="g">4</text><text x="8.016" y="1.67" class="g">yaml</text></symbol><symbol id="5"><text y="1.67" class="g">1</text><text x="8.016" y="1.67" class="g">gitignore</text></symbol><symbol id="6"><text y="1.67" class="g">1</text><text x="8.016" y="1.67" class="g">toml</text></symbol><symbol id="7"><text y="1.67" class="g">1</text><text x="8.016" y="1.67" class="g">md</text></symbol><symbol id="8"><text y="1.67" class="g">1</text><text x="8.016" y="1.67" class="g">lock</text></symbol><symbol id="9"><text y="1.67" class="g">2</text><text x="8.016" y="1.67" class="g">toml</text></symbol><symbol id="10"><text y="1.67" class="g">1</text><text x="8.016" y="1.67" class="g">Dockerfile</text></symbol><symbol id="11"><text y="1.67" class="g">1</text><text x="8.016" y="1.67" class="g">txt</text></symbol><symbol id="12"><text y="1.67" class="g">3</text><text x="8.016" y="1.67" class="g">md</text></symbol><symbol id="13"><text y="1.67" class="g">2</text><text x="8.016" y="1.67" class="g">sh</text></symbol><symbol id="14"><text y="1.67" class="g">1</text><text x="8.016" y="1.67" class="g">svg</text></symbol><symbol id="15"><text y="1.67" class="g">1</text><text x="8.016" y="1.67" class="g">rs</text></symbol><symbol id="a"><path fill="transparent" d="M0 0h80v16H0z"/></symbol></defs><path class="a" d="M0 0h80v32.565H0z"/><g style="animation-duration:12.194163000000001s;animation-iteration-count:infinite;animation-name:i;animation-timing-function:steps(1,end)"><svg width="1760"><svg><use xlink:href="#a"/><use xlink:href="#1"/></svg><svg x="80"><use xlink:href="#a"/><use xlink:href="#2"/></svg><svg x="160"><use xlink:href="#a"/><use xlink:href="#2"/><use xlink:href="#3" y="2.171"/></svg><svg x="240"><use xlink:href="#a"/><use xlink:href="#2"/><use xlink:href="#3" y="2.171"/><text y="6.012" class="g">1</text><text x="8.016" y="6.012" class="g">yaml</text></svg><svg x="320"><use xlink:href="#a"/><use xlink:href="#2"/><text y="3.841" class="g">2</text><text x="8.016" y="3.841" class="g">yaml</text><use xlink:href="#3" y="4.342"/></svg><svg x="400"><use xlink:href="#a"/><use xlink:href="#2"/><text y="3.841" class="g">3</text><text x="8.016" y="3.841" class="g">yaml</text><use xlink:href="#3" y="4.342"/></svg><svg x="480"><use xlink:href="#a"/><use xlink:href="#2"/><use xlink:href="#4" y="2.171"/><use xlink:href="#3" y="4.342"/></svg><svg x="560"><use xlink:href="#a"/><use xlink:href="#2"/><use xlink:href="#4" y="2.171"/><use xlink:href="#3" y="4.342"/><use xlink:href="#5" y="6.513"/></svg><svg x="640"><use xlink:href="#a"/><use xlink:href="#2"/><use xlink:href="#4" y="2.171"/><use xlink:href="#5" y="4.342"/><use xlink:href="#3" y="6.513"/><use xlink:href="#6" y="8.684"/></svg><svg x="720"><use xlink:href="#a"/><use xlink:href="#2"/><use xlink:href="#4" y="2.171"/><use xlink:href="#5" y="4.342"/><use xlink:href="#7" y="6.513"/><use xlink:href="#3" y="8.684"/><use xlink:href="#6" y="10.855"/></svg><svg x="800"><use xlink:href="#a"/><use xlink:href="#2"/><use xlink:href="#4" y="2.171"/><use xlink:href="#5" y="4.342"/><use xlink:href="#8" y="6.513"/><use xlink:href="#7" y="8.684"/><use xlink:href="#3" y="10.855"/><use xlink:href="#6" y="13.026"/></svg><svg x="880"><use xlink:href="#a"/><use xlink:href="#2"/><use xlink:href="#4" y="2.171"/><use xlink:href="#9" y="4.342"/><use xlink:href="#5" y="6.513"/><use xlink:href="#8" y="8.684"/><use xlink:href="#7" y="10.855"/><use xlink:href="#3" y="13.026"/></svg><svg x="960"><use xlink:href="#a"/><use xlink:href="#2"/><use xlink:href="#4" y="2.171"/><use xlink:href="#9" y="4.342"/><use xlink:href="#5" y="6.513"/><use xlink:href="#8" y="8.684"/><use xlink:href="#7" y="10.855"/><use xlink:href="#3" y="13.026"/><use xlink:href="#10" y="15.197"/></svg><svg x="1040"><use xlink:href="#a"/><use xlink:href="#2"/><use xlink:href="#4" y="2.171"/><use xlink:href="#9" y="4.342"/><use xlink:href="#11" y="6.513"/><use xlink:href="#8" y="8.684"/><use xlink:href="#7" y="10.855"/><use xlink:href="#3" y="13.026"/><use xlink:href="#10" y="15.197"/><use xlink:href="#5" y="17.368"/></svg><svg x="1120"><use xlink:href="#a"/><use xlink:href="#2"/><use xlink:href="#4" y="2.171"/><text y="6.012" class="g">2</text><text x="8.016" y="6.012" class="g">md</text><use xlink:href="#9" y="6.513"/><use xlink:href="#11" y="8.684"/><use xlink:href="#8" y="10.855"/><use xlink:href="#3" y="13.026"/><use xlink:href="#10" y="15.197"/><use xlink:href="#5" y="17.368"/></svg><svg x="1200"><use xlink:href="#a"/><use xlink:href="#2"/><use xlink:href="#4" y="2.171"/><use xlink:href="#12" y="4.342"/><use xlink:href="#9" y="6.513"/><use xlink:href="#11" y="8.684"/><use xlink:href="#8" y="10.855"/><use xlink:href="#3" y="13.026"/><use xlink:href="#10" y="15.197"/><use xlink:href="#5" y="17.368"/></svg><svg x="1280"><use xlink:href="#a"/><use xlink:href="#2"/><use xlink:href="#4" y="2.171"/><use xlink:href="#12" y="4.342"/><use xlink:href="#9" y="6.513"/><use xlink:href="#11" y="8.684"/><use xlink:href="#8" y="10.855"/><use xlink:href="#3" y="13.026"/><use xlink:href="#10" y="15.197"/><use xlink:href="#5" y="17.368"/><text y="21.209" class="g">1</text><text x="8.016" y="21.209" class="g">sh</text></svg><svg x="1360"><use xlink:href="#a"/><use xlink:href="#2"/><use xlink:href="#4" y="2.171"/><use xlink:href="#12" y="4.342"/><use xlink:href="#9" y="6.513"/><use xlink:href="#13" y="8.684"/><use xlink:href="#11" y="10.855"/><use xlink:href="#8" y="13.026"/><use xlink:href="#3" y="15.197"/><use xlink:href="#10" y="17.368"/><use xlink:href="#5" y="19.539"/></svg><svg x="1440"><use xlink:href="#a"/><use xlink:href="#2"/><use xlink:href="#4" y="2.171"/><use xlink:href="#12" y="4.342"/><use xlink:href="#9" y="6.513"/><use xlink:href="#13" y="8.684"/><use xlink:href="#11" y="10.855"/><use xlink:href="#8" y="13.026"/><use xlink:href="#3" y="15.197"/><use xlink:href="#10" y="17.368"/><use xlink:href="#5" y="19.539"/><use xlink:href="#14" y="21.71"/></svg><svg x="1520"><use xlink:href="#a"/><use xlink:href="#2"/><use xlink:href="#4" y="2.171"/><use xlink:href="#12" y="4.342"/><use xlink:href="#9" y="6.513"/><use xlink:href="#13" y="8.684"/><use xlink:href="#11" y="10.855"/><use xlink:href="#8" y="13.026"/><use xlink:href="#3" y="15.197"/><use xlink:href="#10" y="17.368"/><use xlink:href="#15" y="19.539"/><use xlink:href="#5" y="21.71"/><use xlink:href="#14" y="23.881"/></svg><svg x="1600"><use xlink:href="#a"/><use xlink:href="#2"/><use xlink:href="#4" y="2.171"/><use xlink:href="#12" y="4.342"/><use xlink:href="#9" y="6.513"/><use xlink:href="#13" y="8.684"/><use xlink:href="#11" y="10.855"/><use xlink:href="#8" y="13.026"/><use xlink:href="#3" y="15.197"/><use xlink:href="#10" y="17.368"/><use xlink:href="#15" y="19.539"/><use xlink:href="#5" y="21.71"/><use xlink:href="#14" y="23.881"/><use xlink:href="#1" y="28.223"/></svg><svg x="1680"><use xlink:href="#a"/><use xlink:href="#2"/><use xlink:href="#4" y="2.171"/><use xlink:href="#12" y="4.342"/><use xlink:href="#9" y="6.513"/><use xlink:href="#13" y="8.684"/><use xlink:href="#11" y="10.855"/><use xlink:href="#8" y="13.026"/><use xlink:href="#3" y="15.197"/><use xlink:href="#10" y="17.368"/><use xlink:href="#15" y="19.539"/><use xlink:href="#5" y="21.71"/><use xlink:href="#14" y="23.881"/><use xlink:href="#1" y="28.223"/></svg></svg></g></g></svg></svg>